<svg width="35" height="35" viewBox="0 0 35 35" fill="none" xmlns="http://www.w3.org/2000/svg">
<path d="M26.3886 0H8.07813C3.6167 0 0 3.6167 0 8.07813V26.3886C0 30.85 3.6167 34.4667 8.07813 34.4667H26.3886C30.85 34.4667 34.4667 30.85 34.4667 26.3886V8.07813C34.4667 3.6167 30.85 0 26.3886 0Z" fill="url(#paint0_radial_489_2952)"/>
<path d="M26.3886 0H8.07813C3.6167 0 0 3.6167 0 8.07813V26.3886C0 30.85 3.6167 34.4667 8.07813 34.4667H26.3886C30.85 34.4667 34.4667 30.85 34.4667 26.3886V8.07813C34.4667 3.6167 30.85 0 26.3886 0Z" fill="url(#paint1_radial_489_2952)"/>
<path d="M17.2348 3.76998C13.5784 3.76998 13.1194 3.78601 11.6834 3.8513C10.25 3.91701 9.27163 4.14387 8.41562 4.47682C7.52999 4.82068 6.77885 5.28073 6.03055 6.0293C5.28157 6.77774 4.82152 7.52887 4.47659 8.4141C4.14269 9.27038 3.91556 10.2492 3.85107 11.6818C3.78685 13.118 3.77002 13.5771 3.77002 17.2337C3.77002 20.8902 3.78618 21.3477 3.85134 22.7838C3.91731 24.2171 4.14417 25.1955 4.47686 26.0515C4.82098 26.9371 5.28103 27.6883 6.02961 28.4366C6.77778 29.1855 7.52891 29.6467 8.41387 29.9905C9.27055 30.3235 10.2491 30.5503 11.6821 30.616C13.1183 30.6813 13.5769 30.6974 17.2332 30.6974C20.89 30.6974 21.3475 30.6813 22.7835 30.616C24.2168 30.5503 25.1963 30.3235 26.053 29.9905C26.9382 29.6467 27.6883 29.1855 28.4363 28.4366C29.1853 27.6883 29.6452 26.9371 29.9903 26.0519C30.3212 25.1955 30.5485 24.2168 30.6158 22.784C30.6803 21.348 30.6971 20.8902 30.6971 17.2337C30.6971 13.5771 30.6803 13.1183 30.6158 11.6821C30.5485 10.2488 30.3212 9.27052 29.9903 8.41451C29.6452 7.52887 29.1853 6.77774 28.4363 6.0293C27.6875 5.28046 26.9385 4.82041 26.0522 4.47696C25.1939 4.14387 24.215 3.91687 22.7816 3.8513C21.3455 3.78601 20.8883 3.76998 17.2306 3.76998H17.2348ZM16.027 6.19625C16.3855 6.19571 16.7855 6.19625 17.2348 6.19625C20.8297 6.19625 21.2557 6.20918 22.6753 6.27367C23.988 6.33371 24.7005 6.55304 25.175 6.73735C25.8034 6.98131 26.2513 7.27307 26.7223 7.74443C27.1935 8.21565 27.4851 8.66439 27.7298 9.29273C27.9141 9.76665 28.1337 10.4791 28.1934 11.7918C28.2579 13.2112 28.2719 13.6374 28.2719 17.2306C28.2719 20.8237 28.2579 21.2501 28.1934 22.6693C28.1334 23.982 27.9141 24.6945 27.7298 25.1685C27.4858 25.7969 27.1935 26.2443 26.7223 26.7152C26.2511 27.1865 25.8037 27.4781 25.175 27.7222C24.701 27.9073 23.988 28.1261 22.6753 28.1861C21.2559 28.2506 20.8297 28.2646 17.2348 28.2646C13.6397 28.2646 13.2136 28.2506 11.7944 28.1861C10.4817 28.1255 9.76924 27.9062 9.29425 27.7219C8.66604 27.4778 8.21716 27.1862 7.74594 26.715C7.27472 26.2437 6.9831 25.7961 6.73846 25.1675C6.55415 24.6934 6.33456 23.9809 6.27478 22.6682C6.21029 21.2489 6.19736 20.8226 6.19736 17.2272C6.19736 13.6319 6.21029 13.2078 6.27478 11.7885C6.33483 10.4758 6.55415 9.76328 6.73846 9.28869C6.98256 8.66035 7.27472 8.21161 7.74608 7.74039C8.2173 7.26916 8.66604 6.97741 9.29438 6.73291C9.76897 6.54778 10.4817 6.329 11.7944 6.26868C13.0364 6.21254 13.5178 6.19571 16.027 6.19289V6.19625ZM24.4216 8.43174C23.5297 8.43174 22.806 9.15473 22.806 10.0468C22.806 10.9388 23.5297 11.6625 24.4216 11.6625C25.3136 11.6625 26.0373 10.9388 26.0373 10.0468C26.0373 9.15487 25.3136 8.4312 24.4216 8.4312V8.43174ZM17.2348 10.3195C13.4165 10.3195 10.3207 13.4153 10.3207 17.2337C10.3207 21.0521 13.4165 24.1464 17.2348 24.1464C21.0532 24.1464 24.1479 21.0521 24.1479 17.2337C24.1479 13.4154 21.0529 10.3195 17.2345 10.3195H17.2348ZM17.2348 12.7457C19.7133 12.7457 21.7227 14.7549 21.7227 17.2337C21.7227 19.7122 19.7133 21.7216 17.2348 21.7216C14.7561 21.7216 12.747 19.7122 12.747 17.2337C12.747 14.7549 14.7561 12.7457 17.2348 12.7457Z" fill="white"/>
<defs>
<radialGradient id="paint0_radial_489_2952" cx="0" cy="0" r="1" gradientUnits="userSpaceOnUse" gradientTransform="translate(9.15521 37.1213) rotate(-90) scale(34.159 31.7706)">
<stop stop-color="#FFDD55"/>
<stop offset="0.1" stop-color="#FFDD55"/>
<stop offset="0.5" stop-color="#FF543E"/>
<stop offset="1" stop-color="#C837AB"/>
</radialGradient>
<radialGradient id="paint1_radial_489_2952" cx="0" cy="0" r="1" gradientUnits="userSpaceOnUse" gradientTransform="translate(-5.77331 2.48281) rotate(78.681) scale(15.2693 62.9405)">
<stop stop-color="#3771C8"/>
<stop offset="0.128" stop-color="#3771C8"/>
<stop offset="1" stop-color="#6600FF" stop-opacity="0"/>
</radialGradient>
</defs>
</svg>
