<svg width="35" height="35" viewBox="0 0 35 35" fill="none" xmlns="http://www.w3.org/2000/svg">
<g clip-path="url(#clip0_489_2962)">
<path d="M26.8554 0H8.54493C4.0835 0 0.466797 3.6167 0.466797 8.07813V26.3886C0.466797 30.85 4.0835 34.4667 8.54493 34.4667H26.8554C31.3168 34.4667 34.9335 30.85 34.9335 26.3886V8.07813C34.9335 3.6167 31.3168 0 26.8554 0Z" fill="white"/>
<path d="M26.8554 0H8.54493C4.0835 0 0.466797 3.6167 0.466797 8.07813V26.3886C0.466797 30.85 4.0835 34.4667 8.54493 34.4667H26.8554C31.3168 34.4667 34.9335 30.85 34.9335 26.3886V8.07813C34.9335 3.6167 31.3168 0 26.8554 0Z" fill="#0A66C2"/>
<path d="M25.3361 29.308H29.2768C29.4196 29.308 29.5566 29.2513 29.6576 29.1503C29.7586 29.0493 29.8153 28.9124 29.8154 28.7696L29.8174 20.4435C29.8174 16.0916 28.8797 12.7466 23.7941 12.7466C21.8608 12.6747 20.0377 13.6713 19.054 15.3354C19.0492 15.3435 19.0418 15.3498 19.0331 15.3533C19.0244 15.3568 19.0148 15.3574 19.0057 15.355C18.9966 15.3525 18.9886 15.3471 18.9828 15.3397C18.9771 15.3322 18.9739 15.3231 18.9739 15.3137V13.6869C18.9739 13.5441 18.9171 13.4071 18.8161 13.3061C18.7151 13.2051 18.5781 13.1484 18.4353 13.1484H14.6955C14.5527 13.1484 14.4157 13.2051 14.3147 13.3061C14.2137 13.4071 14.157 13.5441 14.157 13.6869V28.7688C14.157 28.9116 14.2137 29.0486 14.3147 29.1496C14.4157 29.2506 14.5527 29.3073 14.6955 29.3073H18.6361C18.7789 29.3073 18.9159 29.2506 19.0169 29.1496C19.1179 29.0486 19.1746 28.9116 19.1746 28.7688V21.3136C19.1746 19.2056 19.5745 17.1641 22.1879 17.1641C24.7641 17.1641 24.7975 19.5763 24.7975 21.4501V28.7695C24.7975 28.9123 24.8543 29.0493 24.9553 29.1503C25.0562 29.2513 25.1932 29.308 25.3361 29.308ZM5.58301 8.02792C5.58301 9.62523 6.89799 10.9395 8.49544 10.9395C10.0925 10.9394 11.4067 9.62429 11.4067 8.02724C11.4064 6.4302 10.0921 5.11602 8.4949 5.11602C6.89732 5.11602 5.58301 6.4306 5.58301 8.02792ZM6.51994 29.308H10.4657C10.6085 29.308 10.7455 29.2513 10.8465 29.1503C10.9475 29.0493 11.0042 28.9123 11.0042 28.7695V13.6869C11.0042 13.5441 10.9475 13.4071 10.8465 13.3061C10.7455 13.2051 10.6085 13.1484 10.4657 13.1484H6.51994C6.37711 13.1484 6.24013 13.2051 6.13913 13.3061C6.03813 13.4071 5.98139 13.5441 5.98139 13.6869V28.7695C5.98139 28.9123 6.03813 29.0493 6.13913 29.1503C6.24013 29.2513 6.37711 29.308 6.51994 29.308Z" fill="white"/>
</g>
<defs>
<clipPath id="clip0_489_2962">
<rect width="34.4667" height="34.4667" fill="white" transform="translate(0.466797)"/>
</clipPath>
</defs>
</svg>
