<svg width="108" height="22" viewBox="0 0 108 22" fill="none" xmlns="http://www.w3.org/2000/svg">
<path d="M54.6745 19.39C54.6745 19.7589 54.6745 19.843 54.9239 20.0706L56.3194 21.4474V21.5066H50.1296V18.8601C49.8307 19.7073 49.2742 20.4398 48.5382 20.955C47.8023 21.4702 46.9236 21.7423 46.0252 21.7331C42.8446 21.7331 40.5347 19.2134 40.5347 14.577C40.5347 10.2336 43.0275 7.33565 46.525 7.33565C47.2843 7.28975 48.0389 7.48205 48.6836 7.88572C49.3283 8.28938 49.8309 8.88426 50.1213 9.58733V3.74875C50.144 3.61662 50.1298 3.48076 50.0801 3.35624C50.0304 3.23171 49.9472 3.12337 49.8397 3.04322L48.5096 1.74956V1.69138L54.6745 0.959863V19.39ZM50.1296 18.5494V9.83879C49.9098 9.56174 49.6292 9.33894 49.3096 9.18759C48.99 9.03625 48.6398 8.96042 48.2862 8.96597C46.7817 8.96597 45.328 10.3427 45.328 14.4336C45.328 18.2636 46.5822 19.6165 48.1439 19.6165C48.5356 19.6078 48.9196 19.5066 49.2647 19.3211C49.6098 19.1357 49.9062 18.8712 50.1296 18.5494ZM58.7778 21.5066V9.74631C58.7974 9.61728 58.7848 9.48541 58.7413 9.36237C58.6979 9.23932 58.6247 9.12887 58.5284 9.04078L57.1579 7.61308V7.55386H63.3466V19.4825C63.3466 19.8514 63.3466 19.9355 63.596 20.162L64.9593 21.4557V21.5149L58.7778 21.5066ZM58.5534 3.25311C58.5534 1.86075 59.6694 0.733345 61.0461 0.733345C62.4229 0.733345 63.5378 1.86178 63.5378 3.25311C63.5378 4.64548 62.4229 5.77288 61.0461 5.77288C59.6694 5.77288 58.5534 4.64548 58.5534 3.25311ZM80.0446 19.3651C80.0446 19.7339 80.0446 19.843 80.294 20.0706L81.6895 21.4474V21.5066H75.4675V18.4912C75.1967 19.4159 74.6369 20.2296 73.8701 20.813C73.1032 21.3964 72.1697 21.7189 71.2062 21.7331C68.4475 21.7331 66.9689 19.7007 66.9689 15.853C66.9689 13.9972 66.9689 11.9637 67.0271 9.67981C67.0496 9.55445 67.0384 9.42534 66.9946 9.30573C66.9507 9.18613 66.8759 9.08034 66.7777 8.99922L65.4082 7.61205V7.55282H71.5481V15.2223C71.5481 17.742 71.9128 19.4222 73.4745 19.4222C73.8888 19.3953 74.2897 19.2652 74.6409 19.0438C74.9921 18.8224 75.2823 18.5167 75.4852 18.1545V9.75359C75.5047 9.62455 75.4922 9.49269 75.4487 9.36964C75.4052 9.24659 75.3321 9.13614 75.2358 9.04805L73.8569 7.61205V7.55282H80.0457V19.364L80.0446 19.3651ZM101.113 21.5056C101.113 21.0525 101.196 15.2742 101.196 13.9463C101.196 11.4265 100.805 9.68812 99.0525 9.68812C98.6162 9.7023 98.1895 9.81922 97.8069 10.0294C97.4243 10.2395 97.0967 10.537 96.8507 10.8976C97.0266 11.6832 97.1103 12.4867 97.1001 13.2916C97.1001 15.0383 97.0419 17.264 97.017 19.4908C96.9944 19.6162 97.0056 19.7453 97.0495 19.8649C97.0933 19.9845 97.1681 20.0903 97.2663 20.1714L98.6618 21.465V21.5232H92.4149C92.4149 21.1034 92.498 15.2908 92.498 13.9629C92.498 11.4016 92.1073 9.70475 90.3793 9.70475C89.5273 9.73592 88.75 10.2035 88.3188 10.9475V19.5157C88.3188 19.8856 88.3188 19.9698 88.5682 20.1963L89.9304 21.49V21.5482H83.75V9.78891C83.7697 9.65972 83.7573 9.52765 83.7138 9.4044C83.6703 9.28116 83.5971 9.17054 83.5006 9.08234L82.1301 7.61308V7.55386H88.3199V10.5443C88.8945 8.57008 90.7233 7.24421 92.7567 7.32734C94.8162 7.32734 96.2127 8.48695 96.8019 10.6877C97.115 9.70317 97.7361 8.84521 98.5736 8.24023C99.4111 7.63526 100.421 7.31525 101.454 7.32734C104.213 7.32734 105.774 9.38471 105.774 13.274C105.774 15.1308 105.716 17.2474 105.691 19.4731C105.667 19.6018 105.681 19.7346 105.731 19.8554C105.782 19.9762 105.866 20.0798 105.974 20.1537L107.336 21.4474V21.5066H101.114L101.113 21.5056ZM23.3639 19.6757L25.199 21.4474V21.5066H15.8867V21.4474L17.756 19.6757C17.8542 19.5946 17.9291 19.4888 17.9729 19.3692C18.0167 19.2496 18.028 19.1205 18.0054 18.9952V7.66296C18.0054 7.18498 18.0054 6.53764 18.0885 5.98381L11.8083 21.7331H11.7335L5.2289 7.24317C5.08655 6.88261 5.04498 6.85664 4.95355 6.61349V16.1138C4.87569 16.7494 4.98246 17.394 5.26111 17.9706L7.87855 21.4474V21.5066H0.93335V21.4474L3.54975 17.9613C3.82628 17.3873 3.93299 16.7463 3.85732 16.1138V5.6139C3.90066 5.09805 3.74695 4.58495 3.42714 4.17789L1.57342 1.74956V1.69138H8.21937L13.7847 13.9629L18.686 1.69138H25.1906V1.74956L23.3639 3.80694C23.2561 3.88705 23.1726 3.99551 23.1227 4.12025C23.0728 4.24499 23.0585 4.38112 23.0813 4.51351V18.9952C23.0574 19.1238 23.0714 19.2566 23.1216 19.3774C23.1718 19.4982 23.256 19.6019 23.3639 19.6757ZM30.6489 13.9972V14.0554C30.6489 17.6506 32.485 19.0949 34.6369 19.0949C35.5193 19.1234 36.3906 18.8929 37.1435 18.4318C37.8963 17.9707 38.4976 17.2992 38.8732 16.5003H38.9314C38.1833 20.054 36.0075 21.7331 32.751 21.7331C29.2368 21.7331 25.9222 19.5916 25.9222 14.6269C25.9222 9.41069 29.2451 7.32734 32.9172 7.32734C35.8744 7.32734 39.0229 8.73841 39.0229 13.275V13.9972H30.6489ZM30.6489 13.275H34.745V12.5435C34.745 8.84751 33.9885 7.86454 32.8507 7.86454C31.4719 7.86454 30.6323 9.33484 30.6323 13.275H30.6489Z" fill="black"/>
</svg>
