<svg width="30" height="37" viewBox="0 0 30 37" fill="none" xmlns="http://www.w3.org/2000/svg">
<path d="M25.6058 20.3547C28.0299 24.6904 26.4764 30.1841 22.1406 32.6083C17.8049 35.0324 12.3112 33.4789 9.88703 29.1432C7.68991 25.2135 10.3097 23.7487 8.11258 19.8191C7.05797 17.9328 7.05901 15.6283 8.16907 13.7697C8.52458 13.1755 8.96488 12.6714 9.46954 12.2517L8.70788 10.8894C8.4369 10.4047 8.17831 10.1882 7.89239 10.1074C7.61957 10.0192 7.16337 10.0336 6.33814 10.4949L5.23958 8.5301C6.39228 7.88562 7.50385 7.65958 8.50456 7.94257C9.50528 8.22555 10.2186 8.97868 10.6727 9.79081L11.4344 11.1531C12.0562 10.943 12.7293 10.8245 13.4086 10.8402C15.5733 10.8678 17.5371 12.0738 18.5917 13.9601C20.7889 17.8898 23.4086 16.425 25.6058 20.3547Z" fill="white"/>
<g clip-path="url(#clip0_163_10039)">
<path d="M18.9675 0.17003C18.8653 -0.0498034 18.5735 -0.0585967 18.4513 0.148926C17.8859 1.09685 16.8737 1.68776 15.7174 1.68776H14.2584C12.3252 1.68776 10.7567 3.20022 10.7567 5.06441C10.7567 5.18751 10.7713 5.30534 10.784 5.42493C11.9476 4.62122 13.6274 3.93886 16.0092 3.93886C16.1697 3.93886 16.3011 4.06548 16.3011 4.22024C16.3011 4.37501 16.1697 4.50163 16.0092 4.50163C11.4242 4.50163 9.48003 7.21174 9.04961 8.23001C8.92924 8.51667 9.0715 8.84379 9.36878 8.96162C9.66788 9.08121 10.0071 8.94227 10.1311 8.65737C10.1585 8.59405 10.5123 7.81496 11.4424 7.06401C12.0334 7.83607 13.1568 8.57295 14.6323 8.42171C17.4956 8.22122 19.511 5.74501 19.511 2.71307C19.511 1.83021 19.314 0.915706 18.9675 0.17003Z" fill="white"/>
</g>
<defs>
<clipPath id="clip0_163_10039">
<rect width="10.5051" height="9.00438" fill="white" transform="translate(9.00439)"/>
</clipPath>
</defs>
</svg>
