<svg width="30" height="37" viewBox="0 0 30 37" fill="none" xmlns="http://www.w3.org/2000/svg">
<path d="M25.6058 20.3547C28.0299 24.6904 26.4764 30.1841 22.1406 32.6083C17.8049 35.0324 12.3112 33.4789 9.88703 29.1432C7.68991 25.2135 10.3097 23.7487 8.11258 19.8191C7.05797 17.9328 7.05901 15.6283 8.16907 13.7697C8.52458 13.1755 8.96488 12.6714 9.46954 12.2517L8.70788 10.8894C8.4369 10.4047 8.17831 10.1882 7.89239 10.1074C7.61957 10.0192 7.16337 10.0336 6.33814 10.4949L5.23958 8.5301C6.39228 7.88562 7.50385 7.65958 8.50456 7.94257C9.50528 8.22555 10.2186 8.97868 10.6727 9.79081L11.4344 11.1531C12.0562 10.943 12.7293 10.8245 13.4086 10.8402C15.5733 10.8678 17.5371 12.0738 18.5917 13.9601C20.7889 17.8898 23.4086 16.425 25.6058 20.3547Z" fill="#E25B4B"/>
<g clip-path="url(#clip0_152_458)">
<path d="M18.9675 0.170076C18.8653 -0.0497576 18.5735 -0.058551 18.4513 0.148972C17.8859 1.09689 16.8737 1.68781 15.7174 1.68781H14.2584C12.3252 1.68781 10.7567 3.20026 10.7567 5.06445C10.7567 5.18756 10.7713 5.30539 10.784 5.42498C11.9476 4.62127 13.6274 3.9389 16.0092 3.9389C16.1697 3.9389 16.3011 4.06553 16.3011 4.22029C16.3011 4.37505 16.1697 4.50168 16.0092 4.50168C11.4242 4.50168 9.48003 7.21179 9.04961 8.23006C8.92924 8.51672 9.0715 8.84383 9.36878 8.96166C9.66788 9.08125 10.0071 8.94232 10.1311 8.65741C10.1585 8.5941 10.5123 7.81501 11.4424 7.06406C12.0334 7.83611 13.1568 8.573 14.6323 8.42175C17.4956 8.22126 19.511 5.74506 19.511 2.71311C19.511 1.83026 19.314 0.915752 18.9675 0.170076Z" fill="#E25B4B"/>
</g>
<defs>
<clipPath id="clip0_152_458">
<rect width="10.5051" height="9.00438" fill="white" transform="translate(9.00439 4.57764e-05)"/>
</clipPath>
</defs>
</svg>
