<svg width="93" height="93" viewBox="0 0 93 93" fill="none" xmlns="http://www.w3.org/2000/svg">
<rect width="93" height="93" rx="46.5" fill="url(#paint0_linear_113_6159)"/>
<path d="M49.9332 16.3786C49.4173 16.2998 48.9761 16.1171 48.6098 15.8305C48.2442 15.5388 47.9822 15.1733 47.8237 14.7339C47.666 14.2894 47.6269 13.8067 47.7065 13.2857C47.7875 12.7547 47.9746 12.3014 48.2678 11.9258C48.561 11.5502 48.9226 11.2799 49.3528 11.1149C49.788 10.9507 50.2485 10.9057 50.7345 10.9799C51.1252 11.0395 51.4586 11.1391 51.7346 11.2787C52.0156 11.419 52.2784 11.5949 52.5229 11.8066C52.5599 11.8327 52.5896 11.8731 52.612 11.9278C52.6345 11.9825 52.6411 12.0399 52.6319 12.1C52.6189 12.1852 52.5777 12.2532 52.5084 12.3042C52.4442 12.3559 52.3644 12.3744 52.2693 12.3599C52.2141 12.3515 52.1635 12.3309 52.1172 12.2983C51.9032 12.122 51.6838 11.9809 51.459 11.8748C51.2343 11.7687 50.9842 11.6946 50.7086 11.6526C50.3279 11.5945 49.9725 11.6222 49.6425 11.7359C49.3124 11.8495 49.036 12.0482 48.8132 12.3321C48.5963 12.6116 48.4553 12.9643 48.3903 13.3901C48.3306 13.7809 48.3572 14.1438 48.4701 14.4789C48.5888 14.8097 48.7871 15.0886 49.0651 15.3156C49.349 15.5383 49.7013 15.6818 50.1221 15.7461C50.593 15.818 51.0481 15.7747 51.4876 15.6162L51.6952 14.2562L50.4554 14.0668C50.3702 14.0538 50.3022 14.0127 50.2512 13.9434C50.2003 13.8741 50.1813 13.7969 50.1943 13.7117C50.2073 13.6266 50.2485 13.5585 50.3178 13.5076C50.3871 13.4566 50.4643 13.4377 50.5494 13.4507L52.0298 13.6767C52.1299 13.692 52.2098 13.7401 52.2692 13.8209C52.3286 13.9017 52.3507 13.9923 52.3354 14.0925L52.0749 15.7982C52.0589 15.9034 52.0168 15.9944 51.9487 16.0711C51.8863 16.1436 51.8095 16.1934 51.7183 16.2205C51.1144 16.4154 50.5194 16.468 49.9332 16.3786Z" fill="url(#paint1_linear_113_6159)"/>
<path d="M58.7352 18.6381C58.4119 18.4801 58.1334 18.2594 57.8997 17.9759C57.666 17.6925 57.5214 17.3651 57.4659 16.9939C57.4126 16.6182 57.485 16.2277 57.6831 15.8225L59.0016 13.125C59.0439 13.0385 59.1091 12.9801 59.1972 12.9498C59.2875 12.915 59.376 12.9188 59.4625 12.961C59.549 13.0033 59.6062 13.0708 59.6343 13.1635C59.6691 13.2538 59.6653 13.3422 59.6231 13.4287L58.2945 16.1468C58.161 16.4199 58.109 16.6822 58.1385 16.9335C58.1725 17.187 58.2686 17.4117 58.4267 17.6074C58.5848 17.8031 58.78 17.9578 59.0122 18.0713C59.2444 18.1848 59.4863 18.2438 59.7379 18.2483C59.9895 18.2528 60.2235 18.1895 60.4399 18.0584C60.6609 17.9295 60.8381 17.7284 60.9716 17.4553L62.3001 14.7372C62.3424 14.6507 62.4076 14.5923 62.4957 14.5621C62.5861 14.5273 62.6745 14.531 62.761 14.5733C62.8475 14.6156 62.9048 14.683 62.9328 14.7757C62.9676 14.866 62.9639 14.9545 62.9216 15.041L61.6031 17.7385C61.405 18.1437 61.1414 18.4407 60.8122 18.6296C60.4853 18.8138 60.1382 18.9008 59.7709 18.8905C59.4037 18.8802 59.0584 18.7961 58.7352 18.6381Z" fill="url(#paint2_linear_113_6159)"/>
<path d="M64.984 21.9251C64.9101 21.8558 64.8717 21.7745 64.8688 21.6814C64.8695 21.5917 64.9029 21.5118 64.9688 21.4416C64.9966 21.4121 65.0405 21.3838 65.1006 21.3568L69.6463 19.3483C69.7383 19.3096 69.8292 19.2942 69.9191 19.3021C70.0161 19.3099 70.1034 19.3501 70.181 19.423L70.2364 19.475C70.314 19.5479 70.3578 19.6308 70.3679 19.7237C70.3851 19.8163 70.3773 19.9098 70.3444 20.004L68.6245 24.6666C68.6013 24.7282 68.5759 24.7738 68.5481 24.8034C68.4822 24.8736 68.4027 24.9101 68.3095 24.913C68.2201 24.9194 68.1385 24.8879 68.0646 24.8185C68.0129 24.77 67.977 24.7119 67.957 24.6445C67.9441 24.5767 67.9491 24.5085 67.9721 24.4396L68.4237 23.237L66.5399 21.4677L65.3679 21.9938C65.3007 22.021 65.231 22.0285 65.1589 22.0165C65.094 22.0041 65.0357 21.9737 64.984 21.9251ZM67.1657 21.1899L68.6617 22.595L69.605 20.0917L67.1657 21.1899Z" fill="url(#paint3_linear_113_6159)"/>
<path d="M71.7629 28.7545C71.7147 28.6711 71.7027 28.5844 71.7268 28.4944C71.751 28.4044 71.8047 28.3354 71.8881 28.2872L75.884 25.9802C75.9674 25.9321 76.0541 25.9201 76.144 25.9442C76.2384 25.9658 76.3097 26.0182 76.3578 26.1016L77.2548 27.6552C77.5259 28.1248 77.6274 28.549 77.5593 28.9276C77.4938 29.3107 77.2789 29.6074 76.9146 29.8177C76.6601 29.9647 76.4117 30.0261 76.1696 30.0021C75.9344 29.9799 75.7207 29.8985 75.5284 29.7579C75.597 30.0694 75.5873 30.3617 75.4992 30.6349C75.4137 30.9124 75.2306 31.1323 74.9497 31.2945C74.5459 31.5276 74.1514 31.574 73.7661 31.4336C73.3808 31.2933 73.0196 30.9313 72.6826 30.3476L71.7629 28.7545ZM75.1755 28.645C75.401 29.0356 75.6252 29.2719 75.8481 29.3539C76.0709 29.4359 76.3009 29.4084 76.5379 29.2716C76.7441 29.1525 76.8593 28.9719 76.8834 28.7298C76.91 28.4921 76.8384 28.2262 76.6686 27.9322L75.9731 26.7275L74.5446 27.5522L75.1755 28.645ZM73.208 29.9653C73.4538 30.391 73.6932 30.6536 73.9262 30.7531C74.1617 30.857 74.4002 30.8393 74.6416 30.7C75.1419 30.4111 75.1678 29.8783 74.7193 29.1015L74.0048 27.8639L72.4973 28.7342L73.208 29.9653Z" fill="url(#paint4_linear_113_6159)"/>
<path d="M75.8052 36.2647C75.7824 36.166 75.7956 36.0771 75.845 35.9981C75.8954 35.924 75.9676 35.8761 76.0614 35.8544C76.1009 35.8453 76.1531 35.8462 76.2181 35.8572L81.1132 36.7146C81.2112 36.7335 81.2953 36.7713 81.3656 36.8278C81.442 36.8882 81.4922 36.9702 81.5162 37.0739L81.5333 37.148C81.5573 37.2516 81.5476 37.3449 81.5044 37.4277C81.4672 37.5143 81.4087 37.5877 81.329 37.6477L77.3074 40.5673C77.2539 40.6057 77.2074 40.6295 77.1679 40.6386C77.0741 40.6603 76.9876 40.6465 76.9086 40.5971C76.8307 40.5527 76.7804 40.4812 76.7575 40.3824C76.7415 40.3133 76.744 40.2451 76.7648 40.1779C76.7918 40.1144 76.8339 40.0605 76.8912 40.016L77.9352 39.2674L77.3529 36.7494L76.0862 36.5352C76.0152 36.5205 75.9531 36.488 75.8999 36.4379C75.8528 36.3916 75.8212 36.3339 75.8052 36.2647ZM78.0275 36.8665L78.49 38.8661L80.6657 37.3096L78.0275 36.8665Z" fill="url(#paint5_linear_113_6159)"/>
<path d="M79.1307 51.939C79.1677 51.7604 79.2468 51.6034 79.368 51.4681C79.4881 51.3377 79.6319 51.2433 79.7993 51.1848C79.9716 51.1274 80.1471 51.1172 80.3258 51.1542C80.5044 51.1912 80.6589 51.2698 80.7892 51.39C80.9246 51.5112 81.0214 51.6555 81.0799 51.8228C81.1374 51.9952 81.1476 52.1707 81.1105 52.3493C81.0735 52.5279 80.9949 52.6824 80.8748 52.8128C80.7536 52.9481 80.6073 53.042 80.436 53.0945C80.2686 53.1529 80.0956 53.1637 79.917 53.1267C79.7384 53.0896 79.5814 53.0105 79.4461 52.8893C79.3147 52.7741 79.2203 52.6304 79.1628 52.458C79.1044 52.2906 79.0936 52.1176 79.1307 51.939Z" fill="url(#paint6_linear_113_6159)"/>
<path d="M73.491 62.4802C73.5483 62.4028 73.6231 62.3572 73.7152 62.3435C73.8074 62.3298 73.8921 62.3516 73.9695 62.4089L77.677 65.1554C77.7544 65.2127 77.8 65.2875 77.8137 65.3796C77.8315 65.4748 77.8117 65.5611 77.7544 65.6384L76.8449 66.8661C76.501 67.3303 76.1061 67.6464 75.6601 67.8142C75.2152 67.9891 74.7696 68.0374 74.3231 67.959C73.8767 67.8805 73.4743 67.7086 73.116 67.4431C72.7577 67.1777 72.4759 66.8428 72.2708 66.4386C72.0658 66.0344 71.98 65.5925 72.0137 65.1129C72.0484 64.6404 72.2377 64.1721 72.5816 63.7079L73.491 62.4802ZM73.1505 64.0253C72.9031 64.3592 72.7531 64.7021 72.7005 65.0541C72.6519 65.4092 72.6965 65.7449 72.8342 66.0613C72.9759 66.3807 73.2056 66.6581 73.5232 66.8934C73.8408 67.1287 74.1711 67.2661 74.5139 67.3056C74.8607 67.3482 75.1949 67.293 75.5163 67.1401C75.8418 66.9901 76.1282 66.7482 76.3755 66.4143L77.0271 65.5348L73.8021 63.1457L73.1505 64.0253Z" fill="url(#paint7_linear_113_6159)"/>
<path d="M66.6855 70.2826C67.1746 69.9044 67.6644 69.7468 68.1549 69.8095C68.6445 69.8794 69.0845 70.1669 69.4751 70.6721C69.6951 70.9567 69.846 71.2596 69.9278 71.5807C70.0095 71.9019 69.9995 72.2203 69.8977 72.536C69.7958 72.8517 69.5866 73.132 69.2698 73.3769C68.9732 73.6062 68.6623 73.7345 68.3374 73.7615C68.0155 73.7926 67.7085 73.7352 67.4165 73.5895C67.1276 73.4477 66.8777 73.2406 66.667 72.9679C66.6081 72.8918 66.5845 72.8075 66.5964 72.7151C66.6042 72.6257 66.6502 72.5485 66.7344 72.4835L68.773 70.9074C68.524 70.6515 68.2508 70.5136 67.9535 70.4936C67.6563 70.4736 67.3493 70.5861 67.0325 70.8309C66.8642 70.9611 66.7302 71.0903 66.6307 71.2184C66.5272 71.3497 66.4386 71.4919 66.3648 71.645C66.3451 71.6859 66.3152 71.7218 66.2752 71.7528C66.211 71.8024 66.1378 71.8237 66.0556 71.8168C65.9734 71.8099 65.906 71.7724 65.8533 71.7042C65.7851 71.616 65.7799 71.5015 65.8376 71.3608C65.9258 71.1517 66.029 70.9662 66.1473 70.8044C66.2655 70.6425 66.4449 70.4685 66.6855 70.2826ZM67.343 72.7239C67.5069 72.9111 67.6861 73.0351 67.8806 73.0962C68.0711 73.1603 68.2557 73.1712 68.4345 73.1291C68.6164 73.091 68.7755 73.0192 68.9119 72.9138C69.0482 72.8084 69.1577 72.6725 69.2404 72.5061C69.3262 72.3437 69.3621 72.1622 69.348 71.9617C69.3339 71.7612 69.2569 71.5581 69.1171 71.3524L67.343 72.7239Z" fill="url(#paint8_linear_113_6159)"/>
<path d="M60.5696 74.3665C61.0338 74.1631 61.5019 74.0824 61.974 74.1245C62.0773 74.1456 62.1504 74.2049 62.1931 74.3024C62.2256 74.3766 62.2286 74.4528 62.2019 74.5309C62.1753 74.6089 62.1225 74.6653 62.0436 74.6998C62.0018 74.7181 61.956 74.7272 61.9061 74.7269C61.7291 74.727 61.5582 74.7411 61.3934 74.769C61.2286 74.797 61.0533 74.8516 60.8677 74.933C60.3525 75.1588 60.1671 75.4364 60.3115 75.766C60.3583 75.8727 60.4542 75.9275 60.5993 75.9303C60.7398 75.9352 60.9598 75.9134 61.2596 75.8651C61.5619 75.81 61.8188 75.7777 62.0303 75.768C62.2372 75.7603 62.4362 75.7976 62.6271 75.8799C62.8155 75.9688 62.9606 76.1294 63.0623 76.3614C63.2046 76.6863 63.2046 77.0017 63.062 77.3077C62.9148 77.6156 62.623 77.8652 62.1867 78.0564C61.8293 78.213 61.4674 78.3025 61.1009 78.3248C61.0278 78.3347 60.9638 78.3212 60.909 78.2844C60.8495 78.2496 60.8075 78.2044 60.7831 78.1487C60.7505 78.0744 60.7499 77.9973 60.7812 77.9171C60.8078 77.8391 60.8606 77.7827 60.9395 77.7482C60.9627 77.738 60.9949 77.7294 61.0361 77.7224C61.342 77.688 61.6248 77.6138 61.8847 77.4999C62.1354 77.3901 62.3123 77.2572 62.4155 77.1013C62.5161 76.9521 62.5349 76.8056 62.4718 76.6617C62.4108 76.5224 62.3011 76.4488 62.1426 76.4408C61.9842 76.4328 61.7548 76.4586 61.4545 76.5183C61.1502 76.5686 60.8969 76.5967 60.6946 76.6023C60.4944 76.6126 60.3024 76.5722 60.1187 76.4812C59.9303 76.3923 59.7833 76.2271 59.6775 75.9857C59.5473 75.6887 59.5579 75.3908 59.7091 75.0922C59.8558 74.7955 60.1426 74.5536 60.5696 74.3665Z" fill="url(#paint9_linear_113_6159)"/>
<path d="M55.7174 81.2402C55.8215 81.2184 55.9186 81.2368 56.0086 81.2957C56.0986 81.3545 56.1545 81.4359 56.1763 81.5401L56.1826 81.5699C56.2044 81.674 56.1859 81.7711 56.1271 81.8611C56.0683 81.9511 55.9868 82.007 55.8827 82.0288L55.838 82.0382C55.7339 82.06 55.6368 82.0415 55.5468 81.9827C55.4568 81.9239 55.4009 81.8424 55.3791 81.7382L55.3728 81.7085C55.351 81.6043 55.3695 81.5073 55.4283 81.4173C55.4871 81.3273 55.5686 81.2714 55.6727 81.2495L55.7174 81.2402ZM54.7374 76.6381C54.8316 76.6183 54.9178 76.634 54.9957 76.6849C55.0737 76.7359 55.1226 76.8085 55.1424 76.9027L55.8112 80.0944C55.831 80.1886 55.8154 80.2747 55.7644 80.3527C55.7145 80.4357 55.6424 80.487 55.5482 80.5068C55.449 80.5276 55.3604 80.5125 55.2824 80.4615C55.2044 80.4105 55.155 80.3355 55.1342 80.2363L54.4653 77.0446C54.4456 76.9504 54.4637 76.8637 54.5196 76.7847C54.5706 76.7067 54.6432 76.6578 54.7374 76.6381Z" fill="url(#paint10_linear_113_6159)"/>
<path d="M47.941 75.8782C48.2349 75.883 48.5306 75.9259 48.8283 76.0069C49.126 76.0878 49.3702 76.1856 49.5609 76.3002C49.6512 76.3574 49.6954 76.4469 49.6934 76.5685C49.692 76.6495 49.663 76.7225 49.6061 76.7875C49.5443 76.8473 49.4704 76.8765 49.3842 76.8751C49.3437 76.8744 49.2983 76.8635 49.2479 76.8424C48.866 76.6435 48.4496 76.5404 47.9986 76.533C47.2234 76.5202 46.829 76.9268 46.8154 77.7527L46.807 78.2619C47.1731 77.8827 47.6095 77.6973 48.1162 77.7057C48.4151 77.7106 48.7053 77.7889 48.9866 77.9405C49.2628 78.0971 49.4896 78.3238 49.6672 78.6207C49.8447 78.9226 49.9299 79.2864 49.9229 79.712C49.9159 80.1376 49.8188 80.4959 49.6316 80.7868C49.4442 81.0827 49.21 81.3019 48.9289 81.4442C48.6427 81.5916 48.3501 81.6628 48.0511 81.6578C47.5444 81.6495 47.1144 81.4498 46.761 81.0588L46.7578 81.2488C46.7563 81.3451 46.722 81.4256 46.655 81.4904C46.588 81.5603 46.5063 81.5944 46.4101 81.5928C46.3138 81.5912 46.2333 81.5544 46.1686 81.4824C46.0988 81.4154 46.0646 81.3337 46.0662 81.2375L46.1221 77.8401C46.1326 77.2017 46.2953 76.7127 46.61 76.3733C46.9248 76.0338 47.3684 75.8688 47.941 75.8782ZM47.9614 78.3341C47.7232 78.3302 47.5121 78.3774 47.328 78.4757C47.144 78.5741 46.9669 78.708 46.7969 78.8775L46.7711 80.4432C46.9355 80.6182 47.108 80.7579 47.2888 80.8623C47.4695 80.9666 47.679 81.0207 47.9171 81.0246C48.2971 81.0309 48.6106 80.9195 48.8577 80.6904C49.0996 80.4663 49.2241 80.1364 49.2313 79.7006C49.2385 79.2649 49.1249 78.9285 48.8906 78.6915C48.6511 78.4595 48.3414 78.3404 47.9614 78.3341Z" fill="url(#paint11_linear_113_6159)"/>
<path d="M41.0054 77.2633C41.0978 77.2905 41.1663 77.345 41.2109 77.4268C41.2555 77.5086 41.2643 77.5956 41.2371 77.688L40.317 80.8165C40.2898 80.9089 40.2353 80.9774 40.1535 81.022C40.0703 81.0714 39.9825 81.0826 39.8901 81.0554C39.7978 81.0283 39.73 80.9713 39.6868 80.8847C39.6373 80.8015 39.6262 80.7137 39.6533 80.6213L39.7413 80.3223C39.4965 80.4722 39.2492 80.5764 38.9996 80.635C38.7499 80.6937 38.4792 80.6801 38.1875 80.5943C37.9202 80.5156 37.7078 80.3845 37.5505 80.2009C37.3884 80.0159 37.2884 79.799 37.2507 79.5502C37.2081 79.2999 37.2254 79.0436 37.3026 78.781L37.9117 76.71C37.9389 76.6176 37.9958 76.5498 38.0824 76.5066C38.1642 76.462 38.2513 76.4533 38.3437 76.4805C38.4361 76.5076 38.5046 76.5621 38.5492 76.6439C38.5938 76.7257 38.6025 76.8128 38.5753 76.9051L37.9876 78.9033C37.8132 79.4964 37.9934 79.8716 38.5281 80.0289C38.7712 80.1004 39.0086 80.1015 39.2402 80.0323C39.467 79.9617 39.6969 79.8444 39.93 79.6806L40.5735 77.4928C40.6006 77.4005 40.6576 77.3327 40.7442 77.2895C40.826 77.2449 40.9131 77.2362 41.0054 77.2633Z" fill="url(#paint12_linear_113_6159)"/>
<path d="M26.9013 73.0142C27.0405 73.1321 27.1406 73.2766 27.2016 73.4477C27.2587 73.6155 27.273 73.7869 27.2444 73.9619C27.2126 74.1407 27.1377 74.2998 27.0198 74.439C26.902 74.5783 26.7591 74.6765 26.5913 74.7336C26.4202 74.7946 26.2471 74.8108 26.0722 74.7822C25.8933 74.7503 25.7343 74.6755 25.595 74.5576C25.4558 74.4398 25.3576 74.2969 25.3005 74.1291C25.2395 73.9579 25.2269 73.7846 25.2626 73.609C25.2912 73.4341 25.3644 73.277 25.4823 73.1377C25.6001 72.9984 25.7446 72.8983 25.9157 72.8373C26.0797 72.777 26.2511 72.7627 26.4299 72.7946C26.6049 72.8231 26.762 72.8964 26.9013 73.0142Z" fill="url(#paint13_linear_113_6159)"/>
<path d="M19.8631 61.8068C20.1465 62.3847 20.3029 62.9796 20.3322 63.5918C20.3363 63.6575 20.3222 63.7209 20.29 63.7818C20.2532 63.845 20.2053 63.8911 20.1461 63.9201C20.0688 63.958 19.9905 63.9654 19.9114 63.9421C19.8255 63.9165 19.7624 63.8628 19.7223 63.7809C19.6999 63.7354 19.6878 63.6877 19.686 63.6378C19.6672 63.1278 19.5406 62.6339 19.3063 62.1561C18.9158 61.3599 18.4589 61.0901 17.9357 61.3468C17.7992 61.4137 17.7111 61.5218 17.6715 61.6711C17.6296 61.8158 17.6204 61.9755 17.644 62.1502C17.663 62.3272 17.7042 62.5722 17.7676 62.8855C17.8528 63.3009 17.908 63.6435 17.9331 63.9134C17.9537 64.1855 17.9154 64.447 17.8183 64.6978C17.7212 64.9486 17.5248 65.1466 17.2291 65.2916C16.9697 65.4188 16.7019 65.4655 16.4257 65.4317C16.1449 65.4001 15.8784 65.2825 15.6261 65.0788C15.3671 64.8729 15.146 64.5834 14.963 64.2103C14.7176 63.7098 14.5706 63.2203 14.5221 62.7417C14.5051 62.592 14.5649 62.4837 14.7014 62.4167C14.7742 62.381 14.8524 62.3737 14.9361 62.3947C15.0198 62.4158 15.0817 62.4672 15.1219 62.5491C15.1353 62.5764 15.144 62.6173 15.1482 62.6717C15.1994 63.0868 15.3176 63.4832 15.5028 63.8608C15.6791 64.2203 15.8913 64.4803 16.1394 64.6408C16.3852 64.7968 16.631 64.8145 16.8767 64.694C17.0405 64.6137 17.149 64.4955 17.2023 64.3396C17.2489 64.1813 17.2627 64.008 17.2437 63.8197C17.218 63.6292 17.1689 63.3795 17.0964 63.0707C17.0066 62.6689 16.9513 62.3376 16.9307 62.0768C16.9078 61.8115 16.9494 61.5568 17.0555 61.3129C17.1594 61.0643 17.366 60.8642 17.6754 60.7125C17.9302 60.5875 18.1956 60.5476 18.4718 60.5928C18.7434 60.6402 19.0008 60.7679 19.244 60.976C19.4871 61.1841 19.6935 61.4611 19.8631 61.8068Z" fill="url(#paint14_linear_113_6159)"/>
<path d="M17.0534 54.7806C17.2135 55.503 16.9671 55.9365 16.314 56.0813L14.0134 56.5914L14.1303 57.1183C14.139 57.1579 14.1344 57.1953 14.1162 57.2304C14.092 57.2618 14.0601 57.2818 14.0205 57.2906C13.9711 57.3015 13.9241 57.2886 13.8796 57.2518L12.6688 56.4613C12.6144 56.4267 12.5828 56.3896 12.574 56.35C12.5652 56.3104 12.5729 56.2749 12.5971 56.2436C12.6203 56.2074 12.6516 56.1848 12.6912 56.1761L13.2849 56.0444L13.0989 55.2058C13.0803 55.1217 13.0921 55.0464 13.1345 54.9799C13.1768 54.9135 13.2401 54.8709 13.3242 54.8522C13.4033 54.8347 13.4786 54.8465 13.5501 54.8878C13.6166 54.9302 13.6591 54.9934 13.6778 55.0775L13.8637 55.9161L16.1049 55.4192C16.2978 55.3764 16.4117 55.3044 16.4463 55.2033C16.475 55.0983 16.4739 54.9766 16.4432 54.8381C16.4213 54.7391 16.3845 54.6435 16.3329 54.5511C16.3235 54.5324 16.3142 54.5137 16.3049 54.495C16.2944 54.4714 16.2854 54.4422 16.2777 54.4076C16.2623 54.3383 16.2758 54.2705 16.3182 54.204C16.3556 54.1386 16.4114 54.0977 16.4856 54.0812C16.5994 54.056 16.6986 54.0937 16.7832 54.1943C16.915 54.3675 17.0051 54.563 17.0534 54.7806Z" fill="url(#paint15_linear_113_6159)"/>
<path d="M16.0292 48.4207C16.0238 48.6994 15.9533 48.9413 15.8176 49.1465C15.682 49.3467 15.4992 49.5003 15.269 49.6074C15.039 49.7095 14.7872 49.7579 14.5136 49.7527L12.3552 49.7114C12.2589 49.7096 12.1785 49.6751 12.1139 49.608C12.0494 49.5358 12.018 49.4516 12.0199 49.3553C12.0217 49.2591 12.0562 49.1786 12.1233 49.114C12.1904 49.0494 12.2721 49.018 12.3684 49.0199L14.4508 49.0596C15.0689 49.0714 15.3833 48.7986 15.3939 48.2413C15.3988 47.988 15.3372 47.7612 15.2093 47.5611C15.0814 47.356 14.9077 47.1626 14.6881 46.981L12.4081 46.9375C12.3119 46.9356 12.2314 46.9011 12.1668 46.834C12.1023 46.7618 12.071 46.6776 12.0728 46.5813C12.0747 46.4851 12.1091 46.4046 12.1763 46.34C12.2434 46.2754 12.3251 46.244 12.4213 46.2459L15.6817 46.3081C15.778 46.3099 15.861 46.3445 15.9307 46.4117C15.9953 46.4788 16.0266 46.5605 16.0248 46.6568C16.023 46.753 15.9884 46.836 15.9212 46.9057C15.849 46.9702 15.7648 47.0015 15.6685 46.9997L15.3569 46.9937C15.5661 47.1903 15.7318 47.4013 15.8542 47.6267C15.9767 47.852 16.035 48.1167 16.0292 48.4207Z" fill="url(#paint16_linear_113_6159)"/>
<path d="M16.7899 39.9933C16.7005 40.2944 16.5401 40.5587 16.3087 40.786C16.0739 41.007 15.7855 41.1592 15.4435 41.2427C15.0981 41.3199 14.7287 41.3 14.3352 41.1831C13.9417 41.0663 13.6238 40.882 13.3813 40.6302C13.1355 40.3722 12.977 40.0872 12.9057 39.7753C12.8311 39.4571 12.8385 39.1474 12.9279 38.8462C13.0693 38.3701 13.3773 38.0096 13.8518 37.7647L12.0666 37.2344C11.9694 37.2056 11.8986 37.1502 11.8542 37.0683C11.8113 36.9815 11.8035 36.892 11.8309 36.7997C11.8583 36.7074 11.9154 36.6398 12.0022 36.5968C12.0841 36.5524 12.1712 36.5439 12.2635 36.5713L16.9926 37.9759C17.0849 38.0033 17.1533 38.058 17.1977 38.1399C17.2421 38.2218 17.2505 38.3089 17.2231 38.4012C17.1957 38.4935 17.1403 38.5643 17.057 38.6135C16.9751 38.6579 16.888 38.6664 16.7957 38.639L16.6062 38.5827C16.8701 39.047 16.9313 39.5172 16.7899 39.9933ZM16.1987 39.7146C16.2651 39.4911 16.2785 39.2678 16.2391 39.0446C16.1962 38.8151 16.1146 38.6006 15.9941 38.4009L14.4639 37.9465C14.254 38.048 14.0709 38.1839 13.9146 38.3542C13.7549 38.5182 13.6418 38.712 13.5755 38.9354C13.4687 39.2949 13.497 39.6179 13.6604 39.9043C13.8238 40.1907 14.1144 40.396 14.5321 40.52C14.9499 40.6441 15.3054 40.6308 15.5987 40.48C15.8919 40.3292 16.0919 40.074 16.1987 39.7146Z" fill="url(#paint17_linear_113_6159)"/>
<path d="M15.0289 31.0398C14.9766 31.1325 14.8987 31.1933 14.7951 31.2221C14.6916 31.251 14.5934 31.2393 14.5008 31.187L14.4743 31.172C14.3816 31.1197 14.3208 31.0418 14.292 30.9383C14.2631 30.8347 14.2748 30.7366 14.3271 30.6439L14.3496 30.6042C14.4018 30.5115 14.4798 30.4507 14.5833 30.4219C14.6869 30.393 14.785 30.4048 14.8777 30.457L14.9042 30.472C14.9969 30.5243 15.0576 30.6022 15.0865 30.7058C15.1153 30.8093 15.1036 30.9074 15.0513 31.0001L15.0289 31.0398ZM19.1343 33.3388C19.087 33.4226 19.0185 33.4771 18.9287 33.5021C18.839 33.5271 18.7522 33.5159 18.6683 33.4686L15.8282 31.8661C15.7444 31.8188 15.6899 31.7503 15.6649 31.6605C15.6355 31.5683 15.6445 31.4803 15.6918 31.3964C15.7416 31.3081 15.8114 31.2515 15.9011 31.2265C15.9908 31.2015 16.0799 31.2139 16.1681 31.2637L19.0082 32.8661C19.0921 32.9135 19.1453 32.9842 19.1678 33.0784C19.1928 33.1681 19.1816 33.2549 19.1343 33.3388Z" fill="url(#paint18_linear_113_6159)"/>
<path d="M22.8171 27.6481C22.5557 27.9378 22.2645 28.1358 21.9435 28.242C21.6224 28.3482 21.2947 28.3597 20.9603 28.2765C20.6256 28.1861 20.3114 28.0085 20.0179 27.7437C19.7244 27.479 19.5174 27.1864 19.3969 26.8661C19.276 26.5386 19.2518 26.2098 19.3245 25.8795C19.3973 25.5493 19.5643 25.2393 19.8257 24.9495C20.0836 24.6636 20.3731 24.4675 20.6942 24.3612C21.0152 24.255 21.3448 24.2452 21.683 24.3319C22.0174 24.4151 22.3313 24.5891 22.6248 24.8539C22.9183 25.1186 23.1255 25.4148 23.2464 25.7422C23.3636 26.0663 23.3858 26.3935 23.3131 26.7237C23.2404 27.054 23.075 27.3621 22.8171 27.6481ZM22.3486 27.2255C22.4878 27.0712 22.5844 26.8922 22.6385 26.6885C22.696 26.481 22.6883 26.2625 22.6155 26.033C22.5461 25.7998 22.3929 25.5763 22.1558 25.3624C21.9225 25.152 21.6863 25.0242 21.4472 24.9791C21.2114 24.9302 20.9952 24.9467 20.7985 25.0286C20.6014 25.1034 20.4333 25.2179 20.2941 25.3721C20.1516 25.5302 20.0515 25.7129 19.994 25.9204C19.9362 26.1207 19.9436 26.3356 20.0165 26.5651C20.0893 26.7946 20.2423 27.0145 20.4756 27.225C20.7127 27.4388 20.9491 27.5702 21.1848 27.6191C21.4205 27.6679 21.637 27.655 21.834 27.5803C22.0345 27.5018 22.206 27.3835 22.3486 27.2255Z" fill="url(#paint19_linear_113_6159)"/>
<path d="M31.7961 17.7523C31.6296 17.8271 31.4561 17.855 31.2754 17.8362C31.0994 17.8152 30.9386 17.7541 30.7931 17.6528C30.6455 17.5469 30.5344 17.4107 30.4596 17.2443C30.3849 17.0779 30.358 16.9067 30.3789 16.7306C30.3977 16.5499 30.4578 16.3868 30.5591 16.2413C30.665 16.0938 30.8012 15.9826 30.9676 15.9079C31.134 15.8331 31.3053 15.8062 31.4813 15.8271C31.662 15.846 31.8238 15.9094 31.9668 16.0174C32.1123 16.1187 32.2224 16.2526 32.2971 16.419C32.3719 16.5854 32.3998 16.7589 32.381 16.9396C32.3647 17.1136 32.3036 17.2744 32.1977 17.422C32.0963 17.5674 31.9625 17.6776 31.7961 17.7523Z" fill="url(#paint20_linear_113_6159)"/>
<path d="M55.1032 49.0343C56.7811 52.8615 55.1504 57.4129 51.4659 59.1862C47.7814 60.9595 43.4234 59.2902 41.7454 55.463C40.2246 51.9943 42.4509 50.9228 40.9301 47.4541C40.2001 45.7891 40.3557 43.8379 41.3822 42.3357C41.7108 41.8555 42.1023 41.457 42.5404 41.1342L42.0132 39.9317C41.8256 39.5039 41.6301 39.3039 41.4033 39.217C41.1876 39.1248 40.8161 39.1076 40.1148 39.4451L39.3544 37.7107C40.334 37.2393 41.2521 37.1195 42.0459 37.4235C42.8397 37.7276 43.3686 38.4112 43.6829 39.1281L44.2101 40.3306C44.7293 40.1927 45.284 40.1358 45.8347 40.1928C47.5912 40.3556 49.1053 41.5032 49.8353 43.1682C51.3561 46.637 53.5824 45.5655 55.1032 49.0343Z" fill="url(#paint21_linear_113_6159)"/>
<g clip-path="url(#clip0_113_6159)">
<path d="M48.7378 31.305C48.6794 31.1478 48.4787 31.1258 48.3831 31.2622C47.9415 31.8848 47.2114 32.2369 46.4142 32.1737L45.4083 32.0939C44.0755 31.9882 42.9115 32.9452 42.8096 34.2304C42.8029 34.3153 42.8065 34.3973 42.8087 34.4804C43.6549 33.99 44.8502 33.6113 46.4923 33.7416C46.603 33.7503 46.6866 33.8448 46.6781 33.9515C46.6697 34.0582 46.5722 34.1383 46.4616 34.1295C43.3006 33.8789 41.812 35.641 41.4596 36.3195C41.361 36.5105 41.4412 36.7438 41.6397 36.8413C41.8394 36.9401 42.0808 36.8629 42.1819 36.6732C42.2042 36.6311 42.4907 36.1133 43.173 35.6464C43.5382 36.211 44.2725 36.7805 45.298 36.7568C47.283 36.7752 48.8077 35.1782 48.9735 33.0879C49.0218 32.4793 48.936 31.838 48.7378 31.305Z" fill="url(#paint22_linear_113_6159)"/>
</g>
<defs>
<linearGradient id="paint0_linear_113_6159" x1="46.5" y1="0" x2="46.5" y2="93" gradientUnits="userSpaceOnUse">
<stop stop-opacity="0.23"/>
<stop offset="1" stop-color="#F3AB7D" stop-opacity="0.12"/>
</linearGradient>
<linearGradient id="paint1_linear_113_6159" x1="52.475" y1="9.60861" x2="51.3277" y2="17.1229" gradientUnits="userSpaceOnUse">
<stop stop-color="#F3AB7D" stop-opacity="0.97"/>
<stop offset="1" stop-color="#E25B4B"/>
</linearGradient>
<linearGradient id="paint2_linear_113_6159" x1="63.3004" y1="12.9934" x2="59.9624" y2="19.8227" gradientUnits="userSpaceOnUse">
<stop stop-color="#F3AB7D" stop-opacity="0.97"/>
<stop offset="1" stop-color="#E25B4B"/>
</linearGradient>
<linearGradient id="paint3_linear_113_6159" x1="72.5808" y1="19.4048" x2="67.3769" y2="24.9455" gradientUnits="userSpaceOnUse">
<stop stop-color="#F3AB7D" stop-opacity="0.97"/>
<stop offset="1" stop-color="#E25B4B"/>
</linearGradient>
<linearGradient id="paint4_linear_113_6159" x1="79.4522" y1="28.0728" x2="72.8692" y2="31.8735" gradientUnits="userSpaceOnUse">
<stop stop-color="#F3AB7D" stop-opacity="0.97"/>
<stop offset="1" stop-color="#E25B4B"/>
</linearGradient>
<linearGradient id="paint5_linear_113_6159" x1="83.5212" y1="38.3928" x2="76.1153" y2="40.1056" gradientUnits="userSpaceOnUse">
<stop stop-color="#F3AB7D" stop-opacity="0.97"/>
<stop offset="1" stop-color="#E25B4B"/>
</linearGradient>
<linearGradient id="paint6_linear_113_6159" x1="83.7057" y1="54.6189" x2="76.2625" y2="53.0764" gradientUnits="userSpaceOnUse">
<stop stop-color="#F3AB7D" stop-opacity="0.97"/>
<stop offset="1" stop-color="#E25B4B"/>
</linearGradient>
<linearGradient id="paint7_linear_113_6159" x1="77.0906" y1="69.3807" x2="70.9826" y2="64.856" gradientUnits="userSpaceOnUse">
<stop stop-color="#F3AB7D" stop-opacity="0.97"/>
<stop offset="1" stop-color="#E25B4B"/>
</linearGradient>
<linearGradient id="paint8_linear_113_6159" x1="69.8139" y1="76.8081" x2="65.1646" y2="70.7943" gradientUnits="userSpaceOnUse">
<stop stop-color="#F3AB7D" stop-opacity="0.97"/>
<stop offset="1" stop-color="#E25B4B"/>
</linearGradient>
<linearGradient id="paint9_linear_113_6159" x1="61.8813" y1="81.5173" x2="58.8302" y2="74.5552" gradientUnits="userSpaceOnUse">
<stop stop-color="#F3AB7D" stop-opacity="0.97"/>
<stop offset="1" stop-color="#E25B4B"/>
</linearGradient>
<linearGradient id="paint10_linear_113_6159" x1="54.514" y1="83.8758" x2="52.9548" y2="76.4361" gradientUnits="userSpaceOnUse">
<stop stop-color="#F3AB7D" stop-opacity="0.97"/>
<stop offset="1" stop-color="#E25B4B"/>
</linearGradient>
<linearGradient id="paint11_linear_113_6159" x1="46.1084" y1="84.6736" x2="46.2334" y2="77.0732" gradientUnits="userSpaceOnUse">
<stop stop-color="#F3AB7D" stop-opacity="0.97"/>
<stop offset="1" stop-color="#E25B4B"/>
</linearGradient>
<linearGradient id="paint12_linear_113_6159" x1="36.0726" y1="83.1486" x2="38.2175" y2="75.8561" gradientUnits="userSpaceOnUse">
<stop stop-color="#F3AB7D" stop-opacity="0.97"/>
<stop offset="1" stop-color="#E25B4B"/>
</linearGradient>
<linearGradient id="paint13_linear_113_6159" x1="22.3615" y1="75.7533" x2="27.2722" y2="69.9511" gradientUnits="userSpaceOnUse">
<stop stop-color="#F3AB7D" stop-opacity="0.97"/>
<stop offset="1" stop-color="#E25B4B"/>
</linearGradient>
<linearGradient id="paint14_linear_113_6159" x1="12.8291" y1="63.5343" x2="19.6537" y2="60.1869" gradientUnits="userSpaceOnUse">
<stop stop-color="#F3AB7D" stop-opacity="0.97"/>
<stop offset="1" stop-color="#E25B4B"/>
</linearGradient>
<linearGradient id="paint15_linear_113_6159" x1="9.88246" y1="55.1277" x2="17.3036" y2="53.4823" gradientUnits="userSpaceOnUse">
<stop stop-color="#F3AB7D" stop-opacity="0.97"/>
<stop offset="1" stop-color="#E25B4B"/>
</linearGradient>
<linearGradient id="paint16_linear_113_6159" x1="8.99434" y1="46.1948" x2="16.5943" y2="46.3399" gradientUnits="userSpaceOnUse">
<stop stop-color="#F3AB7D" stop-opacity="0.97"/>
<stop offset="1" stop-color="#E25B4B"/>
</linearGradient>
<linearGradient id="paint17_linear_113_6159" x1="10.5457" y1="36.1641" x2="17.8325" y2="38.3283" gradientUnits="userSpaceOnUse">
<stop stop-color="#F3AB7D" stop-opacity="0.97"/>
<stop offset="1" stop-color="#E25B4B"/>
</linearGradient>
<linearGradient id="paint18_linear_113_6159" x1="13.8417" y1="28.3969" x2="20.4619" y2="32.1322" gradientUnits="userSpaceOnUse">
<stop stop-color="#F3AB7D" stop-opacity="0.97"/>
<stop offset="1" stop-color="#E25B4B"/>
</linearGradient>
<linearGradient id="paint19_linear_113_6159" x1="18.7012" y1="21.6466" x2="24.3454" y2="26.7381" gradientUnits="userSpaceOnUse">
<stop stop-color="#F3AB7D" stop-opacity="0.97"/>
<stop offset="1" stop-color="#E25B4B"/>
</linearGradient>
<linearGradient id="paint20_linear_113_6159" x1="31.2847" y1="12.4749" x2="34.3991" y2="19.409" gradientUnits="userSpaceOnUse">
<stop stop-color="#F3AB7D" stop-opacity="0.97"/>
<stop offset="1" stop-color="#E25B4B"/>
</linearGradient>
<linearGradient id="paint21_linear_113_6159" x1="41.5807" y1="36.6392" x2="52.2503" y2="58.8087" gradientUnits="userSpaceOnUse">
<stop stop-color="#F3AB7D" stop-opacity="0.97"/>
<stop offset="1" stop-color="#E25B4B"/>
</linearGradient>
<linearGradient id="paint22_linear_113_6159" x1="45.501" y1="30.9297" x2="45.0087" y2="37.1383" gradientUnits="userSpaceOnUse">
<stop stop-color="#F3AB7D" stop-opacity="0.97"/>
<stop offset="1" stop-color="#E25B4B"/>
</linearGradient>
<clipPath id="clip0_113_6159">
<rect width="7.26517" height="6.22729" fill="white" transform="translate(41.8792 30.6429) rotate(4.53389)"/>
</clipPath>
</defs>
</svg>
