<svg width="53" height="84" viewBox="0 0 53 84" fill="none" xmlns="http://www.w3.org/2000/svg">
<path d="M26.4759 52.1461C23.1066 52.1461 20.0244 51.5909 17.2294 50.4806C14.4344 49.332 12.0223 47.743 9.99307 45.7138C8.00211 43.6462 6.45147 41.215 5.34112 38.42C4.23078 35.5867 3.67561 32.4854 3.67561 29.1161C3.67561 25.7468 4.23078 22.6646 5.34112 19.8696C6.45147 17.0746 8.00211 14.6625 9.99307 12.6333C12.0223 10.5657 14.4344 8.97679 17.2294 7.86645C20.0244 6.71782 23.1066 6.14351 26.4759 6.14351C29.8452 6.14351 32.9082 6.71782 35.6649 7.86645C38.4599 8.97679 40.872 10.5657 42.9013 12.6333C44.9305 14.6625 46.5003 17.0746 47.6107 19.8696C48.721 22.6646 49.2762 25.7468 49.2762 29.1161C49.2762 32.4854 48.721 35.5867 47.6107 38.42C46.5003 41.215 44.9305 43.6462 42.9013 45.7138C40.872 47.743 38.4599 49.332 35.6649 50.4806C32.9082 51.5909 29.8452 52.1461 26.4759 52.1461ZM26.4759 46.7475C28.9646 46.7475 31.2427 46.3072 33.3102 45.4266C35.4161 44.5077 37.2347 43.2634 38.7662 41.6936C40.2977 40.0855 41.4655 38.2094 42.2695 36.0653C43.1119 33.9212 43.533 31.6048 43.533 29.1161C43.533 26.6274 43.1119 24.311 42.2695 22.1669C41.4655 20.0228 40.2977 18.1658 38.7662 16.596C37.2347 14.9879 35.4161 13.7436 33.3102 12.863C31.2427 11.9824 28.9646 11.5421 26.4759 11.5421C23.9872 11.5421 21.6899 11.9824 19.5841 12.863C17.5166 13.7436 15.7171 14.9879 14.1856 16.596C12.6923 18.1658 11.5246 20.0228 10.6822 22.1669C9.83992 24.311 9.41876 26.6274 9.41876 29.1161C9.41876 31.6048 9.83992 33.9212 10.6822 36.0653C11.5246 38.2094 12.6923 40.0855 14.1856 41.6936C15.7171 43.2634 17.5166 44.5077 19.5841 45.4266C21.6899 46.3072 23.9872 46.7475 26.4759 46.7475Z" fill="black"/>
<path d="M25.9383 71.29C23.2581 71.29 20.8652 70.7157 18.7593 69.5671C16.6918 68.3802 15.0646 66.7529 13.8777 64.6854C12.729 62.5796 12.1547 60.1866 12.1547 57.5065C12.1547 56.6259 12.4419 55.9175 13.0162 55.3815C13.5905 54.8072 14.2988 54.52 15.1412 54.52C16.0218 54.52 16.7301 54.8072 17.2661 55.3815C17.8404 55.9175 18.1276 56.6259 18.1276 57.5065C18.1276 59.1528 18.453 60.6078 19.1039 61.8713C19.7931 63.1347 20.712 64.1302 21.8606 64.8577C23.0476 65.5469 24.4068 65.8915 25.9383 65.8915C27.4698 65.8915 28.829 65.5469 30.0159 64.8577C31.2028 64.1302 32.1217 63.1347 32.7726 61.8713C33.4618 60.6078 33.8064 59.1528 33.8064 57.5065V28.8482C33.8064 27.9676 34.0744 27.2592 34.6104 26.7232C35.1847 26.1489 35.8931 25.8617 36.7354 25.8617C37.616 25.8617 38.3435 26.1489 38.9178 26.7232C39.4921 27.2592 39.7793 27.9676 39.7793 28.8482V57.5065C39.7793 60.1866 39.1858 62.5796 37.9989 64.6854C36.812 66.7529 35.1847 68.3802 33.1172 69.5671C31.0497 70.7157 28.6567 71.29 25.9383 71.29Z" fill="black"/>
</svg>
