<svg width="16" height="17" viewBox="0 0 16 17" fill="none" xmlns="http://www.w3.org/2000/svg">
<path d="M8.29874 9.60523C8.31321 9.3795 8.37395 9.15915 8.47716 8.95788C8.58038 8.75661 8.72388 8.57871 8.89874 8.43523C9.26051 8.13306 9.71738 7.96837 10.1887 7.97023C10.6601 7.96837 11.117 8.13306 11.4787 8.43523C11.6536 8.57871 11.7971 8.75661 11.9003 8.95788C12.0035 9.15915 12.0643 9.3795 12.0787 9.60523C12.1037 10.0802 11.9087 10.5302 11.5737 10.8552C11.2237 11.1952 10.7387 11.4052 10.1887 11.4052C9.63874 11.4052 9.14374 11.1952 8.79874 10.8552C8.63065 10.6949 8.49901 10.5003 8.41274 10.2846C8.32647 10.069 8.28759 9.83725 8.29874 9.60523Z" fill="#0E548B"/>
<path d="M5.28879 10.5454C5.28879 10.7304 5.34879 11.0854 5.43879 11.3604C5.62619 11.958 5.94189 12.5075 6.36379 12.9704C6.81719 13.4703 7.3709 13.8689 7.98879 14.1404C8.65379 14.4304 9.37879 14.5804 10.1238 14.5804C10.8591 14.5815 11.5865 14.4282 12.2588 14.1304C12.8759 13.8576 13.4294 13.4591 13.8838 12.9604C14.5132 12.2633 14.8992 11.3807 14.9838 10.4454C15.0078 10.1487 14.9994 9.85024 14.9588 9.55536C14.8769 8.9779 14.6741 8.4242 14.3638 7.93036C14.0781 7.47211 13.7123 7.06901 13.2838 6.74036L8.91379 3.38036L8.89879 3.37536C8.73853 3.26724 8.54962 3.20947 8.35629 3.20947C8.16297 3.20947 7.97406 3.26724 7.81379 3.37536C7.49879 3.60036 7.46379 3.96536 7.74379 4.20036L9.56879 5.68536L4.00879 5.69036H3.99879C3.53879 5.69036 3.09879 5.99036 3.01379 6.37536C2.92379 6.76036 3.23379 7.08536 3.71379 7.08536H6.52879L1.49879 10.9354L1.47879 10.9504C1.00879 11.3154 0.853793 11.9204 1.15379 12.3004C1.45379 12.6904 2.10379 12.6904 2.57879 12.3004L5.32379 10.0554C5.32379 10.0554 5.28379 10.3554 5.28879 10.5404M12.3388 11.5554C12.0483 11.8459 11.7028 12.0756 11.3224 12.231C10.9421 12.3864 10.5346 12.4643 10.1238 12.4604C9.26879 12.4604 8.47379 12.1404 7.90879 11.5604C7.64438 11.2931 7.43986 10.9727 7.30879 10.6204C7.18466 10.2816 7.13685 9.91969 7.16879 9.56036C7.19799 9.21134 7.3002 8.87235 7.46879 8.56536C7.6405 8.25794 7.86965 7.98635 8.14379 7.76536C8.69379 7.31536 9.39379 7.07536 10.1238 7.07536C10.8588 7.07536 11.5538 7.31536 12.1038 7.76036C12.3779 7.98135 12.6071 8.25294 12.7788 8.56036C12.9467 8.86584 13.0489 9.20306 13.0788 9.55036C13.1123 9.90932 13.0662 10.2713 12.9438 10.6104C12.8125 10.9667 12.6062 11.2907 12.3388 11.5604" fill="#F4792B"/>
</svg>
