<svg width="14" height="14" viewBox="0 0 14 14" fill="none" xmlns="http://www.w3.org/2000/svg">
<g clip-path="url(#clip0_993_1573)">
<path d="M5.12109 13.4968C6.32969 13.4968 7.30469 12.5218 7.30469 11.3132V9.12964H5.12109C3.9125 9.12964 2.9375 10.1046 2.9375 11.3132C2.9375 12.5218 3.9125 13.4968 5.12109 13.4968Z" fill="#0ACF83"/>
<path d="M2.9375 6.94604C2.9375 5.73745 3.9125 4.76245 5.12109 4.76245H7.30469V9.12964H5.12109C3.9125 9.12964 2.9375 8.15464 2.9375 6.94604Z" fill="#A259FF"/>
<path d="M2.9375 2.57886C2.9375 1.37026 3.9125 0.395264 5.12109 0.395264H7.30469V4.76245H5.12109C3.9125 4.76245 2.9375 3.78745 2.9375 2.57886Z" fill="#F24E1E"/>
<path d="M7.30469 0.395264H9.48828C10.6969 0.395264 11.6719 1.37026 11.6719 2.57886C11.6719 3.78745 10.6969 4.76245 9.48828 4.76245H7.30469V0.395264Z" fill="#FF7262"/>
<path d="M11.6719 6.94604C11.6719 8.15464 10.6969 9.12964 9.48828 9.12964C8.27969 9.12964 7.30469 8.15464 7.30469 6.94604C7.30469 5.73745 8.27969 4.76245 9.48828 4.76245C10.6969 4.76245 11.6719 5.73745 11.6719 6.94604Z" fill="#1ABCFE"/>
</g>
<defs>
<clipPath id="clip0_993_1573">
<rect width="13" height="13" fill="white" transform="translate(0.5 0.395264)"/>
</clipPath>
</defs>
</svg>
